<svg width="22" height="12" viewBox="0 0 22 12" fill="none" xmlns="http://www.w3.org/2000/svg">
<path fill-rule="evenodd" clip-rule="evenodd" d="M15.3379 0.131426C15.1343 -0.0551703 14.818 -0.0414189 14.6314 0.162141C14.4448 0.3657 14.4586 0.681984 14.6621 0.86858L19.7146 5.5L6 5.5C5.72386 5.5 5.5 5.72386 5.5 6C5.5 6.27614 5.72386 6.5 6 6.5L19.7146 6.5L14.6621 11.1314C14.4586 11.318 14.4448 11.6343 14.6314 11.8379C14.818 12.0414 15.1343 12.0552 15.3379 11.8686L21.3377 6.36877L21.3379 6.36858C21.4412 6.27387 21.5 6.14016 21.5 6M15.3379 0.131426L21.3359 5.62964Z" fill="white" fill-opacity="0.6"/>
</svg>
